<svg xmlns="http://www.w3.org/2000/svg" viewBox="0 0 630 630">
  <rect width="630" height="630" fill="#f7df1e"/>
  <path d="M423.2,492.19c12.43,20.12,35.72,44.41,76.8,44.41,32.16,0,50.42-16.56,50.42-39.94,0-28.11-22.3-38.08-58.56-54.47l-20.78-8.9c-58.1-24.72-96.46-55.6-96.46-120.98,0-60.23,45.95-106.02,117.5-106.02,51.68,0,89.08,17.9,115.78,65.3l-63.52,40.73c-14.1-25.43-29.2-35.45-52.26-35.45-26.86,0-43.88,17.15-43.88,39.4,0,27.57,17.15,38.76,45.38,55.82l20.77,8.9c68.34,29.25,106.7,58.76,106.7,126.93,0,72.89-57.57,112.08-134.86,112.08-75.74,0-124.57-35.68-148.5-81.16L423.2,492.19Z"/>
  <path d="M167,471.23c13.21,21.32,24.77,39.35,53.27,39.35,27.25,0,44.4-10.46,44.4-51.25V128.53h63.28V460.13c0,86.52-50.97,126.16-125.88,126.16-64.62,0-109.33-38.42-129.35-84.88L167,471.23Z"/>
</svg>
