<svg xmlns="http://www.w3.org/2000/svg" viewBox="0 0 841.9 595.3">
  <g fill="#61dafb">
    <circle cx="420.9" cy="296.5" r="45.7"/>
    <path d="M520.4,409.7c58.7-20.6,102.7-81.3,102.7-150.4c0-92.3-74.1-151-165.4-151S291.9,167,291.9,259.2c0,69.1,44,129.7,102.7,150.4c-40.9,6.5-71.8,37.4-71.8,75.9c0,42.6,37.4,77.1,83.7,77.1c23,0,44.1-8.6,60.4-22.8c16.3,14.2,37.4,22.8,60.4,22.8c46.3,0,83.7-34.5,83.7-77.1C592.2,447.1,561.3,416.2,520.4,409.7Z"/>
    <path d="M528.3,171.5c16.3-7.6,34.6-11.8,53.8-11.8c59.7,0,108.2,48.5,108.2,108.3s-48.5,108.2-108.2,108.2c-19.1,0-37.3-4.7-53.8-12.5C506.8,334.6,500,307.5,500,278.3C500,249.1,506.8,222.1,528.3,171.5Z"/>
  </g>
</svg>
