<svg xmlns="http://www.w3.org/2000/svg" viewBox="0 0 400 400">
  <rect width="400" height="400" fill="#3178c6"/>
  <path d="M88.5,133.3h30v85.8c0,11.9-2.3,21-8.8,27.6c-5.5,5.5-14.5,9.4-26.1,9.4c-17.5,0-27-10.3-30-24.6l25-10.5c2.3,8.3,7,12.3,13.9,12.3c5.9,0,10.1-2.9,12.3-8.3c1.2-3.5,1.7-9.4,1.7-18.2V133.3Z"/>
  <path d="M200,133.3h30v85.8c0,11.9-2.3,21-8.8,27.6c-5.5,5.5-14.5,9.4-26.1,9.4c-17.5,0-27-10.3-30-24.6l25-10.5c2.3,8.3,7,12.3,13.9,12.3c5.9,0,10.1-2.9,12.3-8.3c1.2-3.5,1.7-9.4,1.7-18.2V133.3Z"/>
  <path d="M305.8,195c9,4.5,20,9,32.3,9c11.5,0,18.1-5.1,18.1-13.9c0-9-5.8-12.4-18.1-18.2l-7.2-3.1c-18-8.1-30-20.4-30-44.5c0-22.1,16.9-39,43.3-39c13.3,0,23.1,2.9,29.9,6.6l-10.2,29.2c-6-3.1-14-6-24.3-6c-12.1,0-17.5,5.7-17.5,13c0,8.1,5.1,11.5,17.5,17.2l7.2,3.1c21.2,9,33.2,21.7,33.2,46.5c0,26.7-20.9,40.9-51.2,40.9c-14.5,0-28.7-3.5-35.9-7.7L305.8,195Z"/>
</svg>
